<svg width="20" height="20" viewBox="0 0 20 20" xmlns="http://www.w3.org/2000/svg">
<path d="M10.0001 14.1667C10.2362 14.1667 10.4341 14.0868 10.5938 13.9271C10.7536 13.7674 10.8334 13.5694 10.8334 13.3333V10C10.8334 9.76389 10.7536 9.56598 10.5938 9.40625C10.4341 9.24653 10.2362 9.16667 10.0001 9.16667C9.76397 9.16667 9.56605 9.24653 9.40633 9.40625C9.24661 9.56598 9.16675 9.76389 9.16675 10V13.3333C9.16675 13.5694 9.24661 13.7674 9.40633 13.9271C9.56605 14.0868 9.76397 14.1667 10.0001 14.1667ZM10.0001 7.5C10.2362 7.5 10.4341 7.42014 10.5938 7.26042C10.7536 7.1007 10.8334 6.90278 10.8334 6.66667C10.8334 6.43056 10.7536 6.23264 10.5938 6.07292C10.4341 5.9132 10.2362 5.83334 10.0001 5.83334C9.76397 5.83334 9.56605 5.9132 9.40633 6.07292C9.24661 6.23264 9.16675 6.43056 9.16675 6.66667C9.16675 6.90278 9.24661 7.1007 9.40633 7.26042C9.56605 7.42014 9.76397 7.5 10.0001 7.5ZM10.0001 18.3333C8.8473 18.3333 7.76397 18.1146 6.75008 17.6771C5.73619 17.2396 4.85425 16.6458 4.10425 15.8958C3.35425 15.1458 2.7605 14.2639 2.323 13.25C1.8855 12.2361 1.66675 11.1528 1.66675 10C1.66675 8.84723 1.8855 7.76389 2.323 6.75C2.7605 5.73612 3.35425 4.85417 4.10425 4.10417C4.85425 3.35417 5.73619 2.76042 6.75008 2.32292C7.76397 1.88542 8.8473 1.66667 10.0001 1.66667C11.1529 1.66667 12.2362 1.88542 13.2501 2.32292C14.264 2.76042 15.1459 3.35417 15.8959 4.10417C16.6459 4.85417 17.2397 5.73612 17.6772 6.75C18.1147 7.76389 18.3334 8.84723 18.3334 10C18.3334 11.1528 18.1147 12.2361 17.6772 13.25C17.2397 14.2639 16.6459 15.1458 15.8959 15.8958C15.1459 16.6458 14.264 17.2396 13.2501 17.6771C12.2362 18.1146 11.1529 18.3333 10.0001 18.3333ZM10.0001 16.6667C11.8612 16.6667 13.4376 16.0208 14.7292 14.7292C16.0209 13.4375 16.6667 11.8611 16.6667 10C16.6667 8.13889 16.0209 6.5625 14.7292 5.27084C13.4376 3.97917 11.8612 3.33334 10.0001 3.33334C8.13897 3.33334 6.56258 3.97917 5.27091 5.27084C3.97925 6.5625 3.33341 8.13889 3.33341 10C3.33341 11.8611 3.97925 13.4375 5.27091 14.7292C6.56258 16.0208 8.13897 16.6667 10.0001 16.6667Z" fill="currentColor"/>
</svg>
