<svg width="34" height="27" viewBox="0 0 34 27" fill="none" xmlns="http://www.w3.org/2000/svg">
<path d="M3.66658 26.8333C2.74992 26.8333 1.9652 26.5069 1.31242 25.8542C0.659641 25.2014 0.333252 24.4167 0.333252 23.5V3.49999C0.333252 2.58332 0.659641 1.7986 1.31242 1.14582C1.9652 0.493045 2.74992 0.166656 3.66658 0.166656H30.3333C31.2499 0.166656 32.0346 0.493045 32.6874 1.14582C33.3402 1.7986 33.6666 2.58332 33.6666 3.49999V23.5C33.6666 24.4167 33.3402 25.2014 32.6874 25.8542C32.0346 26.5069 31.2499 26.8333 30.3333 26.8333H3.66658ZM30.3333 6.83332L17.8749 14.625C17.736 14.7083 17.5902 14.7708 17.4374 14.8125C17.2846 14.8542 17.1388 14.875 16.9999 14.875C16.861 14.875 16.7152 14.8542 16.5624 14.8125C16.4096 14.7708 16.2638 14.7083 16.1249 14.625L3.66658 6.83332V23.5H30.3333V6.83332ZM16.9999 11.8333L30.3333 3.49999H3.66658L16.9999 11.8333ZM3.66658 7.24999V4.79166V4.83332V4.81249V7.24999Z" fill="#2C2C2C"/>
</svg>
